solid OpenSCAD_Model
  facet normal -1 0 0
    outer loop
      vertex 0 12.25 4
      vertex 0 13.25 0
      vertex 0 12.25 0
    endloop
  endfacet
  facet normal -1 0 0
    outer loop
      vertex 0 16.25 0
      vertex 0 15.25 0
      vertex 0 16.25 4
    endloop
  endfacet
  facet normal -1 0 0
    outer loop
      vertex 0 15.25 7.99
      vertex 0 28.5 8
      vertex 0 16.25 4
    endloop
  endfacet
  facet normal -1 0 0
    outer loop
      vertex 0 15.25 7.99
      vertex 0 16.25 4
      vertex 0 15.25 0
    endloop
  endfacet
  facet normal -1 -0 0
    outer loop
      vertex 0 28.5 8
      vertex 0 15.25 7.99
      vertex 0 28.5 17
    endloop
  endfacet
  facet normal -1 0 0
    outer loop
      vertex 0 13.25 7.99
      vertex 0 28.5 17
      vertex 0 15.25 7.99
    endloop
  endfacet
  facet normal -1 0 0
    outer loop
      vertex 0 13.25 0
      vertex 0 12.25 4
      vertex 0 13.25 7.99
    endloop
  endfacet
  facet normal -1 0 0
    outer loop
      vertex 0 0 8
      vertex 0 13.25 7.99
      vertex 0 12.25 4
    endloop
  endfacet
  facet normal -1 0 0
    outer loop
      vertex 0 0 17
      vertex 0 13.25 7.99
      vertex 0 0 8
    endloop
  endfacet
  facet normal -1 0 0
    outer loop
      vertex 0 13.25 7.99
      vertex 0 0 17
      vertex 0 28.5 17
    endloop
  endfacet
  facet normal 0 0 1
    outer loop
      vertex 1 28.5 17
      vertex 0 28.5 17
      vertex 1 1 17
    endloop
  endfacet
  facet normal 0 0 1
    outer loop
      vertex 21.5 28.5 17
      vertex 20.5 22 17
      vertex 21.5 0 17
    endloop
  endfacet
  facet normal -0 0 1
    outer loop
      vertex 7 28.5 17
      vertex 20.5 22 17
      vertex 21.5 28.5 17
    endloop
  endfacet
  facet normal 0 0 1
    outer loop
      vertex 20.5 22 17
      vertex 7 28.5 17
      vertex 7 22 17
    endloop
  endfacet
  facet normal -0 0 1
    outer loop
      vertex 20.5 1 17
      vertex 21.5 0 17
      vertex 20.5 22 17
    endloop
  endfacet
  facet normal -0 0 1
    outer loop
      vertex 1 1 17
      vertex 21.5 0 17
      vertex 20.5 1 17
    endloop
  endfacet
  facet normal 0 0 1
    outer loop
      vertex 1 1 17
      vertex 0 0 17
      vertex 21.5 0 17
    endloop
  endfacet
  facet normal 0 0 1
    outer loop
      vertex 0 0 17
      vertex 1 1 17
      vertex 0 28.5 17
    endloop
  endfacet
  facet normal 1 -0 0
    outer loop
      vertex 21.5 0 17
      vertex 21.5 28.5 8
      vertex 21.5 28.5 17
    endloop
  endfacet
  facet normal 1 0 0
    outer loop
      vertex 21.5 28.5 8
      vertex 21.5 0 17
      vertex 21.5 0 8
    endloop
  endfacet
  facet normal 0 -1 0
    outer loop
      vertex 0 0 8
      vertex 21.5 0 17
      vertex 0 0 17
    endloop
  endfacet
  facet normal 0 -1 -0
    outer loop
      vertex 21.5 0 17
      vertex 0 0 8
      vertex 21.5 0 8
    endloop
  endfacet
  facet normal 0 1 0
    outer loop
      vertex 21.5 28.5 17
      vertex 7 28.5 9
      vertex 7 28.5 17
    endloop
  endfacet
  facet normal 0 1 0
    outer loop
      vertex 0 28.5 8
      vertex 7 28.5 9
      vertex 21.5 28.5 8
    endloop
  endfacet
  facet normal 0 1 -0
    outer loop
      vertex 21.5 28.5 8
      vertex 7 28.5 9
      vertex 21.5 28.5 17
    endloop
  endfacet
  facet normal 0 1 -0
    outer loop
      vertex 1 28.5 9
      vertex 0 28.5 17
      vertex 1 28.5 17
    endloop
  endfacet
  facet normal 0 1 0
    outer loop
      vertex 1 28.5 9
      vertex 0 28.5 8
      vertex 0 28.5 17
    endloop
  endfacet
  facet normal 0 1 0
    outer loop
      vertex 7 28.5 9
      vertex 0 28.5 8
      vertex 1 28.5 9
    endloop
  endfacet
  facet normal 0 -0.310402 -0.950605
    outer loop
      vertex 0 0 8
      vertex 15.5 12.25 4
      vertex 21.5 0 8
    endloop
  endfacet
  facet normal -0 -0.310402 -0.950605
    outer loop
      vertex 15.5 12.25 4
      vertex 0 0 8
      vertex 0 12.25 4
    endloop
  endfacet
  facet normal 0 0.310402 -0.950605
    outer loop
      vertex 0 28.5 8
      vertex 15.5 16.25 4
      vertex 0 16.25 4
    endloop
  endfacet
  facet normal 0 0.310402 -0.950605
    outer loop
      vertex 15.5 16.25 4
      vertex 0 28.5 8
      vertex 21.5 28.5 8
    endloop
  endfacet
  facet normal 0.5547 0 -0.83205
    outer loop
      vertex 21.5 0 8
      vertex 21.485 13.25 7.99
      vertex 21.5 28.5 8
    endloop
  endfacet
  facet normal 0.5547 3.7269e-17 -0.83205
    outer loop
      vertex 15.5 12.25 4
      vertex 21.485 13.25 7.99
      vertex 21.5 0 8
    endloop
  endfacet
  facet normal 0.5547 0 -0.83205
    outer loop
      vertex 21.485 13.25 7.99
      vertex 15.5 12.25 4
      vertex 15.5 13.25 4
    endloop
  endfacet
  facet normal 0.5547 0 -0.83205
    outer loop
      vertex 21.485 15.25 7.99
      vertex 21.5 28.5 8
      vertex 21.485 13.25 7.99
    endloop
  endfacet
  facet normal 0.5547 0 -0.83205
    outer loop
      vertex 15.5 16.25 4
      vertex 21.485 15.25 7.99
      vertex 15.5 15.25 4
    endloop
  endfacet
  facet normal 0.5547 -3.7269e-17 -0.83205
    outer loop
      vertex 21.485 15.25 7.99
      vertex 15.5 16.25 4
      vertex 21.5 28.5 8
    endloop
  endfacet
  facet normal 0 -1 0
    outer loop
      vertex 11.5 12.25 0
      vertex 0 12.25 4
      vertex 0 12.25 0
    endloop
  endfacet
  facet normal 0 -1 0
    outer loop
      vertex 0 12.25 4
      vertex 11.5 12.25 0
      vertex 15.5 12.25 4
    endloop
  endfacet
  facet normal 0 0 -1
    outer loop
      vertex 0 15.25 0
      vertex 11.5 16.25 0
      vertex 11.5 15.25 0
    endloop
  endfacet
  facet normal -0 0 -1
    outer loop
      vertex 11.5 16.25 0
      vertex 0 15.25 0
      vertex 0 16.25 0
    endloop
  endfacet
  facet normal 0 0 -1
    outer loop
      vertex 0 12.25 0
      vertex 11.5 13.25 0
      vertex 11.5 12.25 0
    endloop
  endfacet
  facet normal -0 0 -1
    outer loop
      vertex 11.5 13.25 0
      vertex 0 12.25 0
      vertex 0 13.25 0
    endloop
  endfacet
  facet normal 0 1 -0
    outer loop
      vertex 11.5 16.25 0
      vertex 0 16.25 4
      vertex 15.5 16.25 4
    endloop
  endfacet
  facet normal 0 1 0
    outer loop
      vertex 0 16.25 4
      vertex 11.5 16.25 0
      vertex 0 16.25 0
    endloop
  endfacet
  facet normal 0.707107 0 -0.707107
    outer loop
      vertex 15.5 15.25 4
      vertex 11.5 16.25 0
      vertex 15.5 16.25 4
    endloop
  endfacet
  facet normal 0.707107 0 -0.707107
    outer loop
      vertex 11.5 16.25 0
      vertex 15.5 15.25 4
      vertex 11.5 15.25 0
    endloop
  endfacet
  facet normal 0.707107 0 -0.707107
    outer loop
      vertex 15.5 12.25 4
      vertex 11.5 13.25 0
      vertex 15.5 13.25 4
    endloop
  endfacet
  facet normal 0.707107 0 -0.707107
    outer loop
      vertex 11.5 13.25 0
      vertex 15.5 12.25 4
      vertex 11.5 12.25 0
    endloop
  endfacet
  facet normal 1 -0 0
    outer loop
      vertex 1 1 17
      vertex 1 28.5 9
      vertex 1 28.5 17
    endloop
  endfacet
  facet normal 1 0 0
    outer loop
      vertex 1 28.5 9
      vertex 1 1 17
      vertex 1 1 9
    endloop
  endfacet
  facet normal -1 0 0
    outer loop
      vertex 20.5 1 9
      vertex 20.5 22 17
      vertex 20.5 22 9
    endloop
  endfacet
  facet normal -1 -0 0
    outer loop
      vertex 20.5 22 17
      vertex 20.5 1 9
      vertex 20.5 1 17
    endloop
  endfacet
  facet normal 0 -1 0
    outer loop
      vertex 7 22 9
      vertex 20.5 22 17
      vertex 7 22 17
    endloop
  endfacet
  facet normal 0 -1 -0
    outer loop
      vertex 20.5 22 17
      vertex 7 22 9
      vertex 20.5 22 9
    endloop
  endfacet
  facet normal 0 0 1
    outer loop
      vertex 7 28.5 9
      vertex 1 28.5 9
      vertex 7 22 9
    endloop
  endfacet
  facet normal -0 0 1
    outer loop
      vertex 7 22 9
      vertex 20.5 1 9
      vertex 20.5 22 9
    endloop
  endfacet
  facet normal 0 0 1
    outer loop
      vertex 1 1 9
      vertex 7 22 9
      vertex 1 28.5 9
    endloop
  endfacet
  facet normal 0 0 1
    outer loop
      vertex 7 22 9
      vertex 1 1 9
      vertex 20.5 1 9
    endloop
  endfacet
  facet normal 0 1 -0
    outer loop
      vertex 20.5 1 9
      vertex 1 1 17
      vertex 20.5 1 17
    endloop
  endfacet
  facet normal 0 1 0
    outer loop
      vertex 1 1 17
      vertex 20.5 1 9
      vertex 1 1 9
    endloop
  endfacet
  facet normal -1 0 0
    outer loop
      vertex 7 22 9
      vertex 7 28.5 17
      vertex 7 28.5 9
    endloop
  endfacet
  facet normal -1 -0 0
    outer loop
      vertex 7 28.5 17
      vertex 7 22 9
      vertex 7 22 17
    endloop
  endfacet
  facet normal 0 0 -1
    outer loop
      vertex 0 13.25 7.99
      vertex 21.485 15.25 7.99
      vertex 21.485 13.25 7.99
    endloop
  endfacet
  facet normal -0 0 -1
    outer loop
      vertex 21.485 15.25 7.99
      vertex 0 13.25 7.99
      vertex 0 15.25 7.99
    endloop
  endfacet
  facet normal 0 -1 0
    outer loop
      vertex 0 15.25 7.99
      vertex 15.5 15.25 4
      vertex 21.485 15.25 7.99
    endloop
  endfacet
  facet normal 0 -1 0
    outer loop
      vertex 11.5 15.25 0
      vertex 0 15.25 7.99
      vertex 0 15.25 0
    endloop
  endfacet
  facet normal 0 -1 0
    outer loop
      vertex 0 15.25 7.99
      vertex 11.5 15.25 0
      vertex 15.5 15.25 4
    endloop
  endfacet
  facet normal 0 1 -0
    outer loop
      vertex 15.5 13.25 4
      vertex 0 13.25 7.99
      vertex 21.485 13.25 7.99
    endloop
  endfacet
  facet normal 0 1 -0
    outer loop
      vertex 11.5 13.25 0
      vertex 0 13.25 7.99
      vertex 15.5 13.25 4
    endloop
  endfacet
  facet normal 0 1 0
    outer loop
      vertex 0 13.25 7.99
      vertex 11.5 13.25 0
      vertex 0 13.25 0
    endloop
  endfacet
endsolid OpenSCAD_Model
